<svg version="1.0" xmlns="http://www.w3.org/2000/svg" xmlns:xlink="http://www.w3.org/1999/xlink"
     width="100%" height="100%" viewBox="0 0 340.000000 250.000000" preserveAspectRatio="xMidYMid meet"
     color-interpolation-filters="sRGB" class="el-tooltip" style="margin: auto;">
    <g class="iconbgsvg" transform="translate(110,50)">
        <defs>
            <clipPath id="27b2411a955610935cab781689f899ed">
                <rect x="-50" y="-29" width="350" height="75"></rect>
                <rect x="-50" y="104" width="350" height="75"></rect>
            </clipPath>
        </defs>
        <g fill="#339966">
            <g clip-path="url(#27b2411a955610935cab781689f899ed)">
                <rect fill="#339966" fill-opacity="0" stroke-width="2" x="0" y="0" width="120" height="150"></rect>
                <svg x="0" y="0" width="120" height="150" class="imagesvg-svg">
                    <svg xmlns="http://www.w3.org/2000/svg" viewBox="0 0 138.6 173.25">
                        <g style="isolation:isolate">
                            <g>
                                <path d="M49 36.1l-1.2-1.64-1-1.31L26 5.7A14.44 14.44 0 0 0 3 23.16l22 29.03.12-.1a11.78 11.78 0 0 0 1.23 1.43A14.42 14.42 0 0 0 49 36.1z"
                                      fill="#f9a232" style="mix-blend-mode:multiply"></path>
                                <path d="M132.9 2.94a14.47 14.47 0 0 0-20.25 2.76L69.3 62.76 49 36.1l-1.2-1.64-1-1.31a14.42 14.42 0 0 0-21.64 19l-.12.1 26.12 34.38-48.22 63.46a14.44 14.44 0 0 0 23 17.45L135.66 23.16a14.44 14.44 0 0 0-2.76-20.22z"
                                      fill="#b4d564" style="mix-blend-mode:multiply"></path>
                            </g>
                        </g>
                    </svg>
                </svg> <!---->
            </g>
            <g transform="translate(22.978004455566406,56.402408599853516)">
                <g class="tp-name" transform="translate(0,0)">
                    <g>
                        <path transform="translate(-2.484,30.564)"
                              d="M34.13-14.65L34.13-14.65Q34.13-12.67 32.72-12.67L32.72-12.67L32.72-12.67Q31.93-12.67 31.54-13.75L31.54-13.75L31.54-13.75Q31.39-14.15 31.32-14.65L31.32-14.65L31.32-14.65Q31.28-15.05 31.28-15.44L31.28-15.44L31.28-16.34L31.28-16.34Q31.28-16.92 31.25-17.35L31.25-17.35L31.25-17.35Q31.18-18.58 30.96-19.40L30.96-19.40L30.96-19.40Q30.28-21.71 28.22-21.89L28.22-21.89L28.22-21.89Q27.86-21.92 27.40-22.03L27.40-22.03L26.71-22.21L26.24-22.39L25.85-22.46L25.85-22.46Q25.45-22.57 25.09-22.57L25.09-22.57L25.09-22.57Q24.52-22.57 23.29-22.32L23.29-22.32L23.29-22.32Q22.10-22.03 21.46-22.03L21.46-22.03L20.88-22.03L20.88-22.03Q20.52-22.03 20.27-21.96L20.27-21.96L19.73-21.60L19.73-21.60Q19.40-21.42 19.22-21.24L19.22-21.24L19.12-19.91L19.30-18.79L19.30-18.79Q19.33-18.58 19.33-18.40L19.33-18.40L19.33-18.40Q19.33-18.04 19.40-17.60L19.40-17.60L19.40-17.60Q19.40-17.42 19.44-17.17L19.44-17.17L19.55-16.60L19.55-16.60Q19.55-16.45 19.58-16.38L19.58-16.38L19.58-16.38Q19.62-16.16 19.62-15.98L19.62-15.98L19.62-15.98Q19.69-15.55 19.69-15.19L19.69-15.19L19.69-15.19Q19.69-13.10 18.04-13.10L18.04-13.10L18.04-13.10Q17.17-13.10 16.70-13.93L16.70-13.93L16.70-13.93Q16.34-14.62 16.34-15.52L16.34-15.52L16.34-15.52Q16.34-15.70 16.38-15.95L16.38-15.95L16.52-16.56L16.52-16.56Q16.52-16.67 16.56-16.74L16.56-16.74L16.56-16.74Q16.60-16.96 16.60-17.14L16.60-17.14L16.70-19.12L16.67-20.05L16.67-20.05Q16.63-20.63 16.70-20.99L16.70-20.99L16.70-20.99Q16.27-21.53 15.80-21.82L15.80-21.82L14.62-21.74L14.62-21.74Q13.64-21.67 13.00-21.71L13.00-21.71L13.00-21.71Q10.94-21.78 10.94-22.86L10.94-22.86L10.94-22.86Q10.94-23.87 12.67-24.19L12.67-24.19L12.67-24.19Q13.28-24.30 14.11-24.34L14.11-24.34L15.77-24.34L16.67-25.31L16.67-25.74L16.67-25.74Q16.24-26.39 15.80-26.64L15.80-26.64L14.90-26.75L14.90-26.75Q14.18-26.82 13.61-26.96L13.61-26.96L13.61-26.96Q11.95-27.32 11.95-28.01L11.95-28.01L11.95-28.01Q11.95-29.20 14.90-29.52L14.90-29.52L14.90-29.52Q15.91-29.63 17.21-29.63L17.21-29.63L18.83-29.63L18.83-29.63Q19.44-29.63 20.23-29.59L20.23-29.59L23.04-29.38L23.04-29.38Q23.83-29.34 24.44-29.34L24.44-29.34L24.44-29.34Q24.80-29.34 25.27-29.38L25.27-29.38L26.14-29.48L26.14-29.48Q27.29-29.63 27.90-29.63L27.90-29.63L27.90-29.63Q28.91-29.63 29.45-29.38L29.45-29.38L29.45-29.38Q30.24-28.98 30.24-28.12L30.24-28.12L30.24-28.12Q30.24-27.36 29.52-26.93L29.52-26.93L29.52-26.93Q28.91-26.57 28.04-26.57L28.04-26.57L28.04-26.57Q27.50-26.57 26.86-26.64L26.86-26.64L24.48-26.96L24.48-26.96Q23.80-27.04 23.26-27.04L23.26-27.04L23.26-27.04Q20.77-27.04 19.26-25.74L19.26-25.74L19.22-25.20L19.58-24.91L19.58-24.91Q19.80-24.73 19.98-24.62L19.98-24.62L19.98-24.62Q20.74-24.66 21.60-24.52L21.60-24.52L21.60-24.52Q22.25-24.41 23.08-24.19L23.08-24.19L23.08-24.19Q23.22-24.12 23.40-24.08L23.40-24.08L24.30-23.83L24.30-23.83Q24.91-23.65 25.27-23.65L25.27-23.65L25.27-23.65Q25.60-23.65 26.03-23.72L26.03-23.72L27.58-24.08L27.58-24.08Q28.01-24.16 28.37-24.16L28.37-24.16L28.37-24.16Q30.02-24.16 31.25-23.18L31.25-23.18L31.25-23.18Q32.29-22.32 33.01-20.77L33.01-20.77L33.01-20.77Q33.59-19.40 33.88-17.64L33.88-17.64L33.88-17.64Q34.13-16.20 34.13-14.65L34.13-14.65ZM27.79-18.65L27.79-18.65Q27.79-17.21 26.17-17.21L26.17-17.21L26.17-17.21Q24.77-17.21 23.44-17.60L23.44-17.60L23.44-17.60Q21.60-18.14 21.60-19.19L21.60-19.19L21.60-19.19Q21.60-19.37 21.85-19.58L21.85-19.58L21.85-19.58Q22.07-19.76 22.43-19.91L22.43-19.91L22.43-19.91Q23.18-20.23 23.65-20.23L23.65-20.23L24.12-20.23L24.12-20.23Q24.44-20.23 24.73-20.20L24.73-20.20L24.73-20.20Q25.52-20.12 26.10-19.98L26.10-19.98L26.10-19.98Q27.79-19.58 27.79-18.65L27.79-18.65ZM27.86-14.29L27.86-14.29Q27.86-14.11 27.61-13.90L27.61-13.90L27.61-13.90Q27.40-13.72 27.04-13.54L27.04-13.54L27.04-13.54Q26.32-13.14 25.88-13.14L25.88-13.14L25.42-13.14L25.42-13.14Q25.09-13.14 24.77-13.18L24.77-13.18L24.77-13.18Q23.98-13.25 23.36-13.39L23.36-13.39L23.36-13.39Q21.56-13.75 21.56-14.69L21.56-14.69L21.56-14.69Q21.56-16.20 23.26-16.20L23.26-16.20L23.26-16.20Q23.80-16.20 24.48-16.13L24.48-16.13L24.48-16.13Q25.31-16.02 25.99-15.84L25.99-15.84L25.99-15.84Q27.86-15.30 27.86-14.29L27.86-14.29ZM10.40-27.90L10.40-27.90Q10.40-27.29 8.57-26.75L8.57-26.75L8.57-26.75Q7.06-26.32 6.16-26.32L6.16-26.32L6.16-26.32Q4.28-26.32 4.28-27.76L4.28-27.76L4.28-27.76Q4.28-29.56 6.41-29.56L6.41-29.56L6.41-29.56Q6.84-29.56 7.42-29.48L7.42-29.48L7.42-29.48Q8.17-29.38 8.75-29.20L8.75-29.20L8.75-29.20Q10.40-28.73 10.40-27.90L10.40-27.90ZM14.22-18.25L14.22-18.25Q14.22-18.11 13.97-17.89L13.97-17.89L13.97-17.89Q13.79-17.71 13.43-17.53L13.43-17.53L13.43-17.53Q12.67-17.10 12.31-17.10L12.31-17.10L11.45-17.10L11.45-17.10Q11.02-17.10 10.44-17.24L10.44-17.24L9.43-17.46L9.43-17.46Q8.60-17.96 8.60-18.68L8.60-18.68L8.60-18.68Q8.60-20.05 10.26-20.05L10.26-20.05L10.26-20.05Q10.73-20.05 11.30-19.98L11.30-19.98L11.30-19.98Q12.06-19.87 12.64-19.69L12.64-19.69L12.64-19.69Q14.22-19.19 14.22-18.25L14.22-18.25ZM14.36-14.83L14.36-14.83Q14.36-13.79 12.24-13.18L12.24-13.18L12.24-13.18Q10.62-12.71 9.18-12.71L9.18-12.71L9.18-12.71Q7.99-12.71 7.99-14.00L7.99-14.00L7.99-14.00Q7.99-15.05 9.07-15.37L9.07-15.37L10.04-15.55L10.04-15.55Q10.66-15.70 10.94-15.84L10.94-15.84L11.20-15.88L12.82-15.88L12.82-15.88Q13.28-15.88 13.79-15.59L13.79-15.59L13.79-15.59Q14.36-15.26 14.36-14.83L14.36-14.83ZM32.98-4.57L32.98-4.57Q32.98-3.85 32.29-3.60L32.29-3.60L32.29-3.60Q31.82-3.42 30.89-3.42L30.89-3.42L29.77-3.42L29.77-3.42Q29.34-3.42 29.09-3.46L29.09-3.46L29.09-3.46Q28.73-3.46 28.58-3.49L28.58-3.49L28.58-3.49Q28.33-3.10 28.15-2.48L28.15-2.48L28.15-2.48Q27.90-1.84 27.90-1.37L27.90-1.37L27.90-1.37Q27.90-0.04 26.82 0.72L26.82 0.72L26.82 0.72Q25.88 1.44 24.55 1.44L24.55 1.44L24.55 1.44Q23.98 1.44 22.82 1.15L22.82 1.15L22.82 1.15Q21.71 0.90 21.10 0.90L21.10 0.90L21.10 0.90Q20.52 0.90 19.33 1.08L19.33 1.08L19.33 1.08Q18.14 1.30 17.53 1.30L17.53 1.30L17.53 1.30Q17.17 1.30 16.74 1.26L16.74 1.26L15.19 1.01L15.19 1.01Q14.76 0.97 14.40 0.97L14.40 0.97L14.40 0.97Q13.75 0.97 13.10 1.12L13.10 1.12L13.10 1.12Q12.71 1.19 11.99 1.37L11.99 1.37L11.99 1.37Q11.30 1.58 10.91 1.66L10.91 1.66L10.91 1.66Q10.22 1.80 9.58 1.80L9.58 1.80L9.58 1.80Q8.75 1.80 8.21 1.58L8.21 1.58L8.21 1.58Q7.38 1.26 7.38 0.47L7.38 0.47L7.38 0.47Q7.38-0.32 8.46-0.79L8.46-0.79L8.46-0.79Q9.25-1.12 10.15-1.12L10.15-1.12L10.15-1.12Q10.51-1.12 10.87-1.08L10.87-1.08L10.87-1.08Q10.98-1.04 11.12-1.04L11.12-1.04L11.38-1.01L11.38-1.01Q11.95-0.90 12.60-1.08L12.60-1.08L12.60-1.08Q13.68-1.40 14.87-1.40L14.87-1.40L14.87-1.40Q15.19-1.40 15.55-1.37L15.55-1.37L16.92-1.22L16.92-1.22Q17.28-1.19 17.60-1.19L17.60-1.19L17.60-1.19Q17.78-1.19 17.96-1.22L17.96-1.22L19.08-1.33L19.08-1.33Q19.80-1.33 21.10-1.04L21.10-1.04L21.10-1.04Q22.43-0.72 23.11-0.72L23.11-0.72L23.11-0.72Q25.34-0.72 25.67-3.42L25.67-3.42L25.67-3.42Q25.67-3.49 25.38-3.71L25.38-3.71L25.38-3.71Q25.09-3.96 24.91-3.96L24.91-3.96L15.12-3.82L15.12-3.82Q14.36-3.82 13.82-3.89L13.82-3.89L13.82-3.89Q12.20-4.07 12.20-4.79L12.20-4.79L12.20-4.79Q12.20-5.47 13.25-5.87L13.25-5.87L13.25-5.87Q14.08-6.16 15.62-6.26L15.62-6.26L15.62-6.26Q16.70-6.30 18.22-6.26L18.22-6.26L25.38-6.01L25.38-6.01Q25.42-6.16 25.52-6.26L25.52-6.26L26.03-6.70L26.03-6.70Q26.14-6.80 26.14-6.95L26.14-6.95L26.14-6.95Q26.14-7.78 25.70-8.46L25.70-8.46L25.70-8.46Q25.20-9.22 24.44-9.11L24.44-9.11L24.44-9.11Q23.69-9.32 23.22-9.43L23.22-9.43L23.22-9.43Q22.54-9.58 22.00-9.58L22.00-9.58L22.00-9.58Q21.38-9.58 20.12-9.32L20.12-9.32L20.12-9.32Q18.86-9.07 18.22-9.07L18.22-9.07L18.22-9.07Q17.71-9.07 17.06-9.11L17.06-9.11L14.80-9.32L14.80-9.32Q14.15-9.36 13.64-9.36L13.64-9.36L13.64-9.36Q13.10-9.36 12.46-9.22L12.46-9.22L12.46-9.22Q12.06-9.14 11.34-8.93L11.34-8.93L11.34-8.93Q10.62-8.71 10.26-8.64L10.26-8.64L10.26-8.64Q9.65-8.50 9.11-8.50L9.11-8.50L9.11-8.50Q8.42-8.50 7.85-8.71L7.85-8.71L7.85-8.71Q7.09-9.04 7.09-9.65L7.09-9.65L7.09-9.65Q7.09-10.73 8.39-11.27L8.39-11.27L8.39-11.27Q8.86-11.45 9.50-11.56L9.50-11.56L9.50-11.56Q10.01-11.63 10.51-11.63L10.51-11.63L10.51-11.63Q10.84-11.63 11.23-11.59L11.23-11.59L12.60-11.34L12.60-11.34Q13.00-11.30 13.28-11.30L13.28-11.30L13.28-11.30Q13.86-11.30 15.01-11.63L15.01-11.63L15.01-11.63Q16.13-11.95 16.74-11.95L16.74-11.95L19.22-12.02L19.22-12.02Q19.84-12.02 20.99-11.88L20.99-11.88L20.99-11.88Q22.18-11.74 22.75-11.74L22.75-11.74L22.75-11.74Q23.11-11.74 23.69-11.48L23.69-11.48L23.69-11.48Q24.26-11.23 24.66-11.23L24.66-11.23L24.66-11.23Q24.80-11.23 24.95-11.27L24.95-11.27L25.56-11.45L25.85-11.48L25.85-11.48Q26.86-11.48 27.86-10.80L27.86-10.80L27.86-10.80Q28.98-10.04 28.98-9.00L28.98-9.00L28.98-9.00Q28.98-8.39 28.87-7.88L28.87-7.88L28.87-7.88Q28.87-7.78 28.84-7.63L28.84-7.63L28.76-7.38L28.76-7.38Q28.69-7.06 28.66-6.73L28.66-6.73L29.20-6.01L30.71-6.01L30.71-6.01Q31.64-6.01 32.22-5.76L32.22-5.76L32.22-5.76Q32.98-5.40 32.98-4.57L32.98-4.57ZM10.30-22.72L10.30-22.72Q10.30-22.18 9.58-21.89L9.58-21.89L9.58-21.89Q9.00-21.64 8.35-21.64L8.35-21.64L8.35-21.64Q6.62-21.64 5.83-19.66L5.83-19.66L5.83-19.66Q5.51-18.86 5.33-17.86L5.33-17.86L5.33-17.86Q5.22-17.03 5.22-16.13L5.22-16.13L5.22-16.13Q5.22-15.70 5.11-14.90L5.11-14.90L5.11-14.90Q4.97-14.11 4.97-13.75L4.97-13.75L4.97-13.75Q4.97-12.06 3.74-12.06L3.74-12.06L3.74-12.06Q2.48-12.06 2.48-13.82L2.48-13.82L2.48-15.34L2.48-15.34Q2.48-15.91 2.70-17.06L2.70-17.06L2.70-17.06Q2.92-18.25 2.92-18.86L2.92-18.86L2.92-19.22L2.77-20.27L2.77-20.27Q2.63-21.31 4.10-22.57L4.10-22.57L4.10-22.57Q5.51-23.76 6.59-23.72L6.59-23.72L8.68-23.76L8.68-23.76Q10.30-23.76 10.30-22.72L10.30-22.72ZM11.12-4.72L11.12-4.72Q11.12-4.46 10.44-4.14L10.44-4.14L10.44-4.14Q9.86-3.89 8.86-3.67L8.86-3.67L8.86-3.67Q6.91-3.17 5.94-3.17L5.94-3.17L5.94-3.17Q4.07-3.17 4.07-4.43L4.07-4.43L4.07-4.43Q4.07-6.12 6.41-6.12L6.41-6.12L6.95-6.12L6.95-6.12Q7.34-6.12 7.67-6.08L7.67-6.08L7.67-6.08Q8.57-6.05 9.25-5.94L9.25-5.94L9.25-5.94Q11.16-5.62 11.12-4.72L11.12-4.72ZM75.94-19.40L75.94-19.40Q75.94-17.75 74.46-17.75L74.46-17.75L74.46-17.75Q74.14-17.75 73.78-17.86L73.78-17.86L72.45-18.29L72.45-18.29Q72.09-18.40 71.76-18.40L71.76-18.40L71.76-18.40Q71.01-18.40 70.07-18.54L70.07-18.54L69.21-18.72L69.21-18.72Q68.96-18.76 68.38-18.90L68.38-18.90L68.38-18.90Q67.23-19.15 66.62-19.26L66.62-19.26L66.62-19.26Q65.64-19.40 64.85-19.40L64.85-19.40L64.85-19.40Q64.46-19.40 63.70-19.30L63.70-19.30L63.70-19.30Q62.91-19.19 62.51-19.19L62.51-19.19L62.51-19.19Q61.86-19.19 60.60-19.44L60.60-19.44L60.60-19.44Q59.31-19.66 58.66-19.66L58.66-19.66L58.66-19.66Q58.37-19.66 57.98-19.58L57.98-19.58L57.98-19.58Q57.83-19.58 57.65-19.55L57.65-19.55L57.00-19.40L57.00-19.40Q56.82-19.37 56.68-19.37L56.68-19.37L56.68-19.37Q56.28-19.30 56.00-19.30L56.00-19.30L56.00-19.30Q54.99-19.30 53.62-18.97L53.62-18.97L53.62-18.97Q52.68-18.72 51.21-18.22L51.21-18.22L48.94-17.46L48.94-17.46Q47.79-17.14 47.14-17.14L47.14-17.14L47.14-17.14Q45.59-17.14 45.59-18.65L45.59-18.65L45.59-18.65Q45.59-19.87 46.92-20.38L46.92-20.38L46.92-20.38Q47.43-20.59 48.11-20.70L48.11-20.70L48.11-20.70Q48.62-20.77 49.26-20.81L49.26-20.81L49.26-20.81Q49.80-20.84 50.99-21.10L50.99-21.10L51.82-21.28L51.82-21.28Q52.29-21.35 52.65-21.35L52.65-21.35L52.97-21.35L52.97-21.35Q54.16-22.00 55.06-23.54L55.06-23.54L54.52-24.08L54.27-24.08L54.27-24.08Q53.66-24.08 52.47-23.83L52.47-23.83L52.47-23.83Q51.28-23.58 50.70-23.58L50.70-23.58L50.70-23.58Q48.62-23.58 48.62-25.34L48.62-25.34L48.62-25.34Q48.62-27.04 50.56-27.04L50.56-27.04L50.56-27.04Q50.92-27.04 51.57-26.96L51.57-26.96L51.57-26.96Q52.25-26.89 52.58-26.89L52.58-26.89L52.58-26.89Q52.94-26.89 53.37-26.96L53.37-26.96L53.37-26.96Q53.55-26.96 53.76-27.00L53.76-27.00L54.16-27.07L54.16-27.07Q54.45-27.11 54.56-27.14L54.56-27.14L54.56-27.14Q54.77-27.18 54.95-27.18L54.95-27.18L54.95-27.18Q55.38-27.25 55.74-27.25L55.74-27.25L55.74-27.25Q56.00-27.25 56.36-27.22L56.36-27.22L56.97-27.14L57.33-27.18L57.33-27.18Q57.40-27.18 57.47-27.22L57.47-27.22L57.65-27.29L57.65-27.29Q57.87-27.36 57.98-27.36L57.98-27.36L57.98-27.36Q58.16-27.40 58.30-27.36L58.30-27.36L58.80-27.72L58.80-27.72Q58.55-28.12 58.55-28.73L58.55-28.73L58.55-28.73Q58.55-30.56 60.64-30.56L60.64-30.56L60.64-30.56Q61.18-30.56 61.76-30.13L61.76-30.13L61.76-30.13Q62.33-29.66 62.30-29.12L62.30-29.12L62.40-28.80L62.44-28.19L62.44-28.19Q62.40-28.01 62.30-27.97L62.30-27.97L62.30-27.97Q62.58-27.72 63.23-27.43L63.23-27.43L63.99-27.43L63.99-27.43Q64.49-27.43 65.14-27.50L65.14-27.50L67.44-27.76L67.44-27.76Q68.09-27.83 68.60-27.83L68.60-27.83L68.60-27.83Q69.46-27.83 70.22-27.29L70.22-27.29L70.22-27.29Q71.04-26.71 71.04-25.88L71.04-25.88L71.04-25.88Q71.04-25.06 70.29-24.62L70.29-24.62L70.29-24.62Q69.60-24.23 68.74-24.23L68.74-24.23L68.74-24.23Q68.56-24.23 68.31-24.26L68.31-24.26L67.52-24.41L67.52-24.41Q67.26-24.48 67.08-24.48L67.08-24.48L67.08-24.48Q66.65-24.16 66.36-23.80L66.36-23.80L67.19-22.72L67.19-22.72Q67.66-22.14 68.13-21.71L68.13-21.71L68.13-21.71Q68.27-21.71 68.42-21.67L68.42-21.67L68.42-21.67Q68.49-21.64 68.70-21.60L68.70-21.60L68.70-21.60Q68.88-21.53 68.96-21.53L68.96-21.53L69.24-21.49L70.94-21.49L70.94-21.49Q72.23-21.49 73.17-21.35L73.17-21.35L73.17-21.35Q75.94-20.92 75.94-19.40L75.94-19.40ZM73.60-5.72L73.60-5.72Q73.60-4.79 72.20-3.67L72.20-3.67L72.20-3.67Q70.83-2.56 69.93-2.56L69.93-2.56L69.93-2.56Q69.28-2.56 69.28-3.42L69.28-3.42L69.28-3.56L69.28-3.56Q69.53-3.96 69.78-4.68L69.78-4.68L69.93-5.15L69.93-5.15Q69.96-5.22 69.96-5.29L69.96-5.29L69.96-5.29Q70.07-5.65 70.18-5.87L70.18-5.87L70.18-5.87Q70.68-7.16 71.91-7.16L71.91-7.16L71.91-7.16Q72.05-7.16 72.20-7.13L72.20-7.13L72.66-6.91L72.66-6.91Q72.77-6.84 72.92-6.84L72.92-6.84L72.92-6.84Q73.60-6.34 73.60-5.72L73.60-5.72ZM70.32-14.11L70.32-12.85L70.32-12.85Q70.32-9.76 69.28-8.93L69.28-8.93L69.28-8.93Q68.42-8.21 65.28-8.21L65.28-8.21L65.28-8.21Q64.85-8.21 64.02-8.39L64.02-8.39L64.02-8.39Q63.20-8.53 62.73-8.53L62.73-8.53L62.73-8.53Q62.37-8.53 61.97-8.46L61.97-8.46L61.97-8.46Q61.79-8.39 61.61-8.35L61.61-8.35L60.89-8.14L60.89-8.14Q60.71-8.06 60.57-8.06L60.57-8.06L60.57-8.06Q60.17-7.96 59.85-7.96L59.85-7.96L59.85-7.96Q59.56-7.96 58.98-8.10L58.98-8.10L58.98-8.10Q58.41-8.21 58.08-8.21L58.08-8.21L58.08-8.21Q57.76-8.21 57.36-8.10L57.36-8.10L56.07-7.67L56.07-7.67Q55.71-7.56 55.38-7.56L55.38-7.56L55.38-7.56Q55.20-7.56 55.02-7.60L55.02-7.60L54.66-7.70L54.66-7.70Q54.52-7.74 54.30-7.70L54.30-7.70L53.62-7.42L53.62-7.42Q53.44-7.34 53.26-7.34L53.26-7.34L53.26-7.34Q52.65-7.34 51.75-7.92L51.75-7.92L51.75-7.92Q50.74-8.53 50.74-9.07L50.74-9.07L50.74-9.07Q50.74-9.40 50.67-9.76L50.67-9.76L50.27-11.09L50.27-11.09Q50.20-11.48 50.20-11.84L50.20-11.84L50.31-13.10L50.31-13.10Q50.31-13.32 50.27-13.43L50.27-13.43L50.49-14.22L50.49-14.22Q50.63-14.76 50.81-15.12L50.81-15.12L50.81-15.12Q51.32-16.16 52.11-16.16L52.11-16.16L52.11-16.16Q52.65-16.16 52.90-15.59L52.90-15.59L52.90-15.59Q53.08-15.16 53.08-14.54L53.08-14.54L53.04-13.72L53.04-13.72Q53.04-13.50 53.01-13.36L53.01-13.36L53.01-13.36Q52.97-12.53 53.04-11.99L53.04-11.99L53.04-11.99Q53.22-10.33 54.52-10.33L54.52-10.33L54.52-10.33Q54.66-10.33 54.81-10.37L54.81-10.37L55.42-10.44L55.42-10.44Q55.60-10.48 55.74-10.48L55.74-10.48L55.74-10.48Q56.14-10.48 56.79-10.26L56.79-10.26L56.79-10.26Q57.47-10.04 57.83-10.04L57.83-10.04L57.83-10.04Q58.19-10.04 58.91-10.30L58.91-10.30L58.91-10.30Q59.63-10.51 60.03-10.51L60.03-10.51L60.03-10.51Q60.39-10.51 61.07-10.33L61.07-10.33L61.07-10.33Q61.76-10.12 62.08-10.12L62.08-10.12L62.08-10.12Q62.40-10.12 62.76-10.22L62.76-10.22L62.76-10.22Q62.94-10.26 63.12-10.33L63.12-10.33L64.13-10.69L64.13-10.69Q64.53-10.80 64.85-10.80L64.85-10.80L64.85-10.80Q65.54-10.80 65.86-10.84L65.86-10.84L65.86-10.84Q66.36-10.91 66.72-11.05L66.72-11.05L66.72-11.05Q67.52-11.45 67.52-12.74L67.52-12.74L67.52-13.14L67.52-13.14Q67.52-13.39 67.48-13.57L67.48-13.57L67.48-13.57Q67.44-14.04 67.34-14.36L67.34-14.36L67.34-14.36Q67.05-15.19 66.15-15.30L66.15-15.30L66.15-15.30Q65.61-14.98 64.92-15.26L64.92-15.26L64.92-15.26Q64.82-15.26 64.64-15.37L64.64-15.37L64.35-15.48L64.35-15.48Q64.02-15.62 63.74-15.62L63.74-15.62L63.74-15.62Q63.45-15.62 62.84-15.52L62.84-15.52L62.84-15.52Q62.22-15.41 61.90-15.41L61.90-15.41L61.90-15.41Q61.54-15.41 61.11-15.48L61.11-15.48L61.11-15.48Q60.93-15.48 60.75-15.52L60.75-15.52L59.96-15.70L59.96-15.70Q59.78-15.73 59.60-15.73L59.60-15.73L59.60-15.73Q59.16-15.80 58.80-15.80L58.80-15.80L58.80-15.80Q58.41-15.80 57.94-15.73L57.94-15.73L56.32-15.34L56.32-15.34Q55.85-15.26 55.49-15.26L55.49-15.26L55.49-15.26Q53.98-15.26 53.98-16.34L53.98-16.34L53.98-16.34Q53.98-17.14 55.06-17.60L55.06-17.60L55.53-17.68L56.00-17.82L56.00-17.82Q56.57-17.96 56.90-17.96L56.90-17.96L56.90-17.96Q57.15-17.96 57.54-17.89L57.54-17.89L58.16-17.78L58.16-17.78Q58.34-17.75 58.66-17.82L58.66-17.82L60.10-18.22L60.10-18.22Q60.50-18.29 60.78-18.29L60.78-18.29L61.94-18.29L63.27-18.22L63.27-18.22Q64.92-18.11 66.18-17.82L66.18-17.82L66.18-17.82Q67.77-17.46 68.70-16.78L68.70-16.78L68.70-16.78Q69.82-16.02 70.04-14.83L70.04-14.83L70.04-14.83Q69.96-14.40 70.32-14.11L70.32-14.11ZM63.02-13.28L63.02-13.28Q63.02-12.13 61.79-12.13L61.79-12.13L59.88-12.06L59.88-12.06Q59.45-12.06 58.70-11.88L58.70-11.88L58.70-11.88Q57.90-11.70 57.51-11.70L57.51-11.70L57.51-11.70Q56.14-11.70 56.14-13.00L56.14-13.00L56.14-13.00Q56.14-14.40 57.44-14.40L57.44-14.40L57.44-14.40Q57.80-14.40 58.44-14.51L58.44-14.51L58.44-14.51Q59.09-14.58 59.42-14.58L59.42-14.58L61.54-14.69L61.54-14.69Q63.02-14.69 63.02-13.28L63.02-13.28ZM66.58-5.29L66.58-5.29Q66.58-5.15 66.44-4.79L66.44-4.79L66.26-4.21L66.26-4.21Q65.72-3.24 64.60-3.24L64.60-3.24L64.60-3.24Q64.38-3.24 64.24-3.28L64.24-3.28L64.24-3.28Q64.02-3.35 63.92-3.49L63.92-3.49L63.92-3.49Q63.84-3.85 63.48-3.89L63.48-3.89L63.27-4.25L62.87-5.36L62.87-5.36Q62.84-5.58 62.84-5.80L62.84-5.80L62.84-5.80Q62.84-7.42 64.78-7.42L64.78-7.42L64.78-7.42Q66.58-7.42 66.58-5.29L66.58-5.29ZM76.52 0.36L76.52 0.36Q76.52 1.62 74.75 2.05L74.75 2.05L74.75 2.05Q74.14 2.20 73.28 2.23L73.28 2.23L73.28 2.23Q72.95 2.27 72.59 2.27L72.59 2.27L72.02 2.27L72.02 2.27Q71.84 2.27 71.62 2.23L71.62 2.23L70.86 2.05L70.86 2.05Q70.65 2.02 70.47 2.02L70.47 2.02L70.47 2.02Q70.14 2.02 69.78 1.98L69.78 1.98L68.42 1.87L68.42 1.87Q68.02 1.84 67.73 1.84L67.73 1.84L67.73 1.84Q67.01 1.84 65.93 1.44L65.93 1.44L65.93 1.44Q64.82 1.04 64.28 1.04L64.28 1.04L64.28 1.04Q63.70 1.04 63.23 0.72L63.23 0.72L62.15 0.40L62.15 0.40Q61.61 0.22 61.25 0L61.25 0L61.25 0Q60.35-0.47 59.88-1.40L59.88-1.40L59.88-1.40Q59.67-1.51 59.38-1.55L59.38-1.55L58.91-1.66L58.91-1.66Q58.34-1.76 58.01-2.09L58.01-2.09L57.69-2.34L57.69-2.34Q57.51-2.48 57.33-2.56L57.33-2.56L57.33-2.56Q57.26-2.66 57.11-2.77L57.11-2.77L57.11-2.77Q57.04-2.84 56.86-2.95L56.86-2.95L56.86-2.95Q56.36-2.88 55.89-2.38L55.89-2.38L55.89-2.38Q55.64-2.09 55.20-1.40L55.20-1.40L55.20-1.40Q54.41-0.04 53.84-0.04L53.84-0.04L53.84-0.04Q53.04-0.04 53.04-0.83L53.04-0.83L53.08-1.30L53.22-1.87L53.22-1.87Q53.40-2.52 53.55-2.88L53.55-2.88L53.55-2.88Q53.73-3.10 53.91-3.49L53.91-3.49L54.16-4.28L54.16-4.28Q54.56-5.29 55.28-5.62L55.28-5.62L55.28-5.62Q56.00-6.34 56.50-6.34L56.50-6.34L56.50-6.34Q58.16-6.34 58.16-4.93L58.16-4.93L58.16-4.93Q58.16-4.50 58.34-4.18L58.34-4.18L58.34-4.18Q58.48-4.07 59.20-3.64L59.20-3.64L60.75-2.77L60.75-2.77Q61.65-2.27 62.26-1.98L62.26-1.98L62.26-1.98Q62.98-1.62 63.12-1.62L63.12-1.62L63.12-1.62Q63.45-1.62 63.81-1.58L63.81-1.58L65.14-1.37L65.14-1.37Q65.50-1.33 65.82-1.33L65.82-1.33L65.82-1.33Q66.44-1.33 67.19-1.22L67.19-1.22L69.82-0.79L69.82-0.79Q70.54-0.68 71.15-0.68L71.15-0.68L71.15-0.68Q71.58-0.68 72.34-0.90L72.34-0.90L72.34-0.90Q73.10-1.12 73.46-1.12L73.46-1.12L73.46-1.12Q73.56-1.12 73.71-1.15L73.71-1.15L74.00-1.22L74.00-1.22Q74.14-1.30 74.25-1.30L74.25-1.30L74.25-1.30Q74.39-1.33 74.50-1.33L74.50-1.33L74.50-1.33Q75.54-1.33 76.44-0.14L76.44-0.14L76.44-0.14Q76.52 0.14 76.52 0.36L76.52 0.36ZM50.52-5.11L50.56-4.64L50.56-4.64Q50.56-3.56 49.84-1.76L49.84-1.76L49.84-1.76Q48.98 0.32 48.08 0.32L48.08 0.32L48.08 0.32Q47.57 0.32 47.28-0.36L47.28-0.36L47.28-0.36Q47.07-0.90 47.07-1.48L47.07-1.48L47.07-1.48Q47.07-2.52 47.90-4.39L47.90-4.39L47.90-4.39Q48.83-6.52 49.73-6.52L49.73-6.52L49.73-6.52Q50.09-6.52 50.38-5.76L50.38-5.76L50.52-5.11ZM65.00-23.62L65.00-23.62Q64.67-24.16 64.20-24.52L64.20-24.52L64.20-24.52Q62.62-24.59 61.61-24.59L61.61-24.59L61.61-24.59Q61.29-24.59 60.71-24.44L60.71-24.44L60.71-24.44Q60.10-24.26 59.81-24.26L59.81-24.26L59.81-24.26Q59.63-24.26 59.42-24.30L59.42-24.30L59.02-24.37L59.02-24.37Q58.73-24.44 58.59-24.44L58.59-24.44L58.59-24.44Q58.37-24.48 58.19-24.48L58.19-24.48L58.19-24.48Q58.01-24.48 57.83-24.44L57.83-24.44L57.51-24.37L57.51-24.37Q57.26-24.30 57.15-24.30L57.15-24.30L57.15-24.30Q56.97-24.26 56.82-24.26L56.82-24.26L56.50-24.30L56.50-24.30Q56.28-24.08 56.10-23.80L56.10-23.80L56.10-23.80Q56.75-22.57 57.26-22.00L57.26-22.00L57.26-22.00Q58.01-22.03 59.31-21.96L59.31-21.96L61.36-21.92L61.36-21.92Q61.61-21.92 62.30-22.00L62.30-22.00L62.30-22.00Q62.91-22.07 63.23-22.03L63.23-22.03L63.23-22.03Q64.53-22.75 65.00-23.62L65.00-23.62Z"></path>
                    </g> <!---->
                </g>
                <g class="tp-slogan" fill="#00800d" transform="translate(0,35.56199836730957)"><!---->
                    <rect x="0" height="1" y="3.8199996948242188" width="5.484996795654297"></rect>
                    <rect height="1" y="3.8199996948242188" width="5.484996795654297" x="68.55499649047852"></rect>
                    <g transform="translate(8.484996795654297,0)">
                        <path transform="translate(-0.5859375,6.3671875)"
                              d="M0.59-1.84L0.82-0.04L1.09-0.04L1.09-0.04Q1.17-0.20 1.29-0.20L1.29-0.20L1.29-0.20Q1.37-0.20 1.64-0.12L1.64-0.12L1.64-0.12Q2.50 0.08 3.01 0.08L3.01 0.08L3.01 0.08Q5 0 5.16-1.72L5.16-1.72L5.16-1.72Q5.16-2.42 4.57-3.05L4.57-3.05L4.57-3.05Q4.10-3.52 3.01-4.06L3.01-4.06L3.01-4.06Q1.80-4.73 1.80-5.23L1.80-5.23L1.80-5.23Q1.88-5.90 2.77-5.94L2.77-5.94L2.77-5.94Q3.98-5.90 4.41-4.61L4.41-4.61L4.80-4.61L4.61-6.21L4.41-6.21L4.41-6.21Q4.34-6.17 4.38-6.17L4.38-6.17L4.38-6.17Q4.26-6.09 4.18-6.09L4.18-6.09L4.18-6.09Q4.14-6.09 3.91-6.17L3.91-6.17L3.91-6.17Q3.20-6.37 2.66-6.37L2.66-6.37L2.66-6.37Q0.74-6.25 0.63-4.73L0.63-4.73L0.63-4.73Q0.86-3.28 2.38-2.77L2.38-2.77L2.38-2.77Q3.67-2.27 3.83-1.33L3.83-1.33L3.83-1.33Q3.75-0.39 2.70-0.35L2.70-0.35L2.70-0.35Q1.45-0.35 0.98-1.84L0.98-1.84L0.59-1.84ZM10.59-0.90L10.59-2.46L10.59-2.46Q10.63-4.22 9.53-4.18L9.53-4.18L9.53-4.18Q8.79-4.18 7.66-3.40L7.66-3.40L7.66-4.30L7.50-4.30L5.78-3.71L5.78-3.48L5.98-3.44L5.98-3.44Q6.48-3.28 6.45-2.97L6.45-2.97L6.45-1.02L6.45-1.02Q6.48-0.27 5.90-0.31L5.90-0.31L5.82-0.31L5.82 0L8.36 0L8.36-0.31L8.28-0.31L8.28-0.31Q7.66-0.31 7.66-0.98L7.66-0.98L7.66-3.01L7.66-3.01Q8.28-3.44 8.75-3.44L8.75-3.44L8.75-3.44Q9.34-3.48 9.34-2.30L9.34-2.30L9.34-1.45L9.34-1.45Q9.38-0.31 8.79-0.31L8.79-0.31L8.79 0L11.13 0L11.13-0.31L11.13-0.31Q10.55-0.27 10.59-0.90L10.59-0.90ZM11.76-1.99L11.76-1.99L11.76-1.99Q11.88-0.04 14.10 0.04L14.10 0.04L14.10 0.04Q16.45-0.08 16.64-2.11L16.64-2.11L16.64-2.11Q16.48-4.02 14.26-4.18L14.26-4.18L14.26-4.18Q11.95-4.02 11.76-1.99ZM13.09-2.58L13.09-2.58L13.09-2.58Q13.13-3.71 14.02-3.75L14.02-3.75L14.02-3.75Q15.23-3.59 15.31-1.56L15.31-1.56L15.31-1.56Q15.27-0.35 14.41-0.31L14.41-0.31L14.41-0.31Q13.20-0.39 13.09-2.58ZM17.85-3.16L19.22 0L19.77 0L20.98-2.54L22.07 0L22.62 0L23.91-2.89L23.91-2.89Q24.18-3.79 24.80-3.75L24.80-3.75L24.80-4.06L22.97-4.06L22.97-3.75L22.97-3.75Q23.71-3.71 23.44-3.05L23.44-3.05L22.73-1.33L21.99-3.16L21.99-3.16Q21.76-3.79 22.34-3.75L22.34-3.75L22.34-4.06L20.08-4.06L20.08-3.75L20.08-3.75Q20.51-3.79 20.70-3.13L20.70-3.13L19.92-1.33L19.14-3.24L19.14-3.24Q18.91-3.71 19.45-3.75L19.45-3.75L19.45-4.06L17.07-4.06L17.07-3.75L17.07-3.75Q17.62-3.75 17.85-3.16L17.85-3.16ZM25.78-2.85L27.11-0.12L26.91 0.27L26.91 0.27Q26.56 0.98 25.94 1.05L25.94 1.05L25.94 1.05Q25.55 1.09 25.39 1.25L25.39 1.25L25.39 1.25Q25.27 1.45 25.23 1.68L25.23 1.68L25.23 1.68Q25.27 2.23 25.86 2.27L25.86 2.27L25.86 2.27Q26.41 2.27 26.80 1.52L26.80 1.52L29.02-2.97L29.02-2.97Q29.34-3.71 29.88-3.75L29.88-3.75L29.88-4.06L28.01-4.06L28.01-3.75L28.01-3.75Q28.87-3.71 28.55-2.97L28.55-2.97L27.77-1.45L26.95-3.16L26.95-3.16Q26.80-3.48 26.91-3.59L26.91-3.59L26.91-3.59Q26.99-3.75 27.38-3.75L27.38-3.75L27.38-4.06L24.80-4.06L24.80-3.75L24.80-3.75Q25.35-3.83 25.78-2.85L25.78-2.85ZM30.23-6.21L30.23-5.82L30.35-5.82L30.35-5.82Q31.13-5.86 31.09-5.08L31.09-5.08L31.09-1.09L31.09-1.09Q31.13-0.39 30.35-0.39L30.35-0.39L30.23-0.39L30.23 0L33.40 0L33.40-0.39L33.24-0.39L33.24-0.39Q32.42-0.35 32.46-1.13L32.46-1.13L32.46-5.08L32.46-5.08Q32.46-5.82 33.24-5.82L33.24-5.82L33.40-5.82L33.40-6.21L30.23-6.21ZM38.91-0.98L38.91-2.81L38.91-2.81Q39.96-3.48 40.31-3.44L40.31-3.44L40.31-3.44Q40.94-3.44 40.94-2.30L40.94-2.30L40.94-1.45L40.94-1.45Q40.98-0.31 40.35-0.31L40.35-0.31L40.35 0L42.70 0L42.70-0.31L42.70-0.31Q42.11-0.27 42.15-0.90L42.15-0.90L42.15-2.46L42.15-2.46Q42.19-4.22 41.09-4.18L41.09-4.18L41.09-4.18Q40.27-4.18 38.87-3.16L38.87-3.16L38.87-3.16Q38.71-4.14 37.85-4.18L37.85-4.18L37.85-4.18Q37.23-4.26 35.66-3.16L35.66-3.16L35.66-4.30L35.51-4.30L33.79-3.71L33.79-3.48L34.02-3.40L34.02-3.40Q34.49-3.24 34.45-2.97L34.45-2.97L34.45-1.02L34.45-1.02Q34.49-0.27 33.87-0.31L33.87-0.31L33.83-0.31L33.83 0L36.33 0L36.33-0.31L36.25-0.31L36.25-0.31Q35.66-0.31 35.66-0.98L35.66-0.98L35.66-2.81L35.66-2.81Q36.64-3.48 37.07-3.44L37.07-3.44L37.07-3.44Q37.70-3.44 37.70-2.46L37.70-2.46L37.70-1.02L37.70-1.02Q37.73-0.27 37.11-0.31L37.11-0.31L37.11 0L39.49 0L39.49-0.31L39.49-0.31Q38.91-0.31 38.91-0.98L38.91-0.98ZM47.50-0.51L47.34-0.74L47.34-0.74Q47.23-0.63 47.07-0.63L47.07-0.63L47.07-0.63Q46.88-0.59 46.88-1.09L46.88-1.09L46.88-2.97L46.88-2.97Q46.80-4.02 45.23-4.18L45.23-4.18L45.23-4.18Q44.14-4.10 43.59-3.59L43.59-3.59L43.59-3.59Q43.20-3.24 43.36-2.62L43.36-2.62L44.49-3.01L44.49-3.01Q44.41-3.75 45-3.79L45-3.79L45-3.79Q45.59-3.75 45.63-3.13L45.63-3.13L45.63-2.73L45.63-2.73Q45.23-2.42 44.45-2.19L44.45-2.19L44.45-2.19Q43.83-1.99 43.59-1.76L43.59-1.76L43.59-1.76Q43.28-1.45 43.28-0.94L43.28-0.94L43.28-0.94Q43.32 0 44.41 0.04L44.41 0.04L44.41 0.04Q45.12 0.08 45.66-0.51L45.66-0.51L45.66-0.51Q45.74 0 46.37 0.04L46.37 0.04L46.37 0.04Q46.99 0 47.50-0.51L47.50-0.51ZM45.63-2.30L45.63-0.86L45.63-0.86Q45.23-0.47 44.96-0.47L44.96-0.47L44.96-0.47Q44.49-0.51 44.45-1.13L44.45-1.13L44.45-1.13Q44.41-1.72 45.12-1.99L45.12-1.99L45.12-1.99Q45.47-2.15 45.63-2.30L45.63-2.30ZM53.05-3.13L53.05-4.14L51.64-3.79L51.64-3.79Q51.09-4.18 50.27-4.18L50.27-4.18L50.27-4.18Q48.40-4.06 48.24-2.66L48.24-2.66L48.24-2.66Q48.36-1.64 49.53-1.45L49.53-1.45L49.53-1.41L49.53-1.41Q48.09-1.09 48.20-0.59L48.20-0.59L48.20-0.59Q48.24 0.04 49.06 0.27L49.06 0.27L49.06 0.27Q48.98 0.43 48.59 0.59L48.59 0.59L48.59 0.59Q48.05 0.86 48.05 1.25L48.05 1.25L48.05 1.25Q48.20 2.15 50.12 2.23L50.12 2.23L50.12 2.23Q52.73 2.11 52.93 0.55L52.93 0.55L52.93 0.55Q52.85-0.47 51.41-0.51L51.41-0.51L50.55-0.51L50.55-0.51Q49.30-0.51 49.30-0.86L49.30-0.86L49.30-0.86Q49.26-1.02 50.12-1.33L50.12-1.33L50.12-1.33Q52.11-1.37 52.23-2.70L52.23-2.70L52.23-2.70Q52.27-3.09 52.03-3.36L52.03-3.36L53.05-3.13ZM50.39 0.47L51.21 0.47L51.21 0.47Q52.03 0.47 52.03 0.98L52.03 0.98L52.03 0.98Q51.95 1.76 50.63 1.80L50.63 1.80L50.63 1.80Q49.26 1.72 49.14 0.94L49.14 0.94L49.14 0.94Q49.18 0.63 49.53 0.39L49.53 0.39L49.53 0.39Q49.92 0.47 50.39 0.47L50.39 0.47ZM49.45-2.81L49.45-2.81L49.45-2.81Q49.49-3.71 50.20-3.75L50.20-3.75L50.20-3.75Q50.98-3.71 51.02-2.58L51.02-2.58L51.02-2.58Q50.98-1.76 50.31-1.72L50.31-1.72L50.31-1.72Q49.49-1.76 49.45-2.81ZM57.54-1.17L57.30-1.37L57.30-1.37Q56.60-0.59 56.09-0.63L56.09-0.63L56.09-0.63Q55.08-0.74 54.88-2.11L54.88-2.11L57.66-2.11L57.66-2.38L57.66-2.38Q57.50-2.46 57.42-2.81L57.42-2.81L57.42-2.81Q57.30-3.40 56.99-3.71L56.99-3.71L56.99-3.71Q56.52-4.18 55.74-4.18L55.74-4.18L55.74-4.18Q53.75-4.02 53.59-1.95L53.59-1.95L53.59-1.95Q53.67-0.04 55.43 0.04L55.43 0.04L55.43 0.04Q56.68 0 57.54-1.17L57.54-1.17ZM56.25-2.46L54.84-2.46L54.84-2.46Q54.80-3.55 55.55-3.71L55.55-3.71L55.55-3.71Q56.21-3.67 56.25-2.46L56.25-2.46Z"></path>
                    </g>
                </g>
            </g>
        </g>
    </g>
</svg>