<svg data-v-7557f5b8="" version="1.0" xmlns="http://www.w3.org/2000/svg" xmlns:xlink="http://www.w3.org/1999/xlink"
     width="100%" height="100%" viewBox="0 0 340.000000 250.000000" preserveAspectRatio="xMidYMid meet"
     color-interpolation-filters="sRGB" class="el-tooltip" style="margin: auto;">
    <rect data-v-7557f5b8="" x="0" y="0" width="100%" height="100%" fill="#fff" fill-opacity="1"></rect>
    <rect data-v-7557f5b8="" x="0" y="0" width="100%" height="100%" fill="url(#watermark)" fill-opacity="1"
          class="watermarklayer"></rect>
    <g data-v-7557f5b8="" fill="url(#92)" class="iconbordersvg"
       transform="translate(94.36000061035156,49.36000061035156)">
        <g fill="url(#92)">
            <polyline stroke="url(#92)" stroke-width="4" fill-opacity="0"
                      points="10.133838375973838,54.679998397826715 10.133838375973838,37.819999694824006 75.63999938964844,0 141.14616040332305,37.819999694824006 141.14616040332305,54.679998397826715"></polyline>
            <polyline stroke="url(#92)" stroke-width="4" fill-opacity="0"
                      points="10.133838375973838,96.6000003814693 10.133838375973838,113.459999084472 75.63999938964844,151.279998779296 141.14616040332305,113.459999084472 141.14616040332305,96.6000003814693"></polyline>
            <g transform="translate(60.63999938964844,101.5999984741211)"><!---->
                <svg x="0" y="0" width="30" height="22.7015625" class="imagesvg-svg">
                    <svg xmlns="http://www.w3.org/2000/svg" viewBox="0 0 95.4 72.2">
                        <path d="M70.1 2l22.4 22.6-44.8 44.8L2.8 24.6 25.4 2h44.7zM38 59.8l44.9-44.9" fill="none"
                              stroke="url(#92)" stroke-width="4" stroke-miterlimit="10"></path>
                    </svg>
                </svg> <!---->
            </g>
            <g transform="translate(0,54.679998397826715)">
                <rect stroke-width="2" x="0" y="0" width="151.27999877929688" height="41.92000198364258"
                      fill-opacity="0"></rect> <!----> <!---->
                <g transform="translate(0,3)">
                    <g class="tp-name" transform="translate(0,0)">
                        <g>
                            <path transform="translate(-1.8,27.36)"
                                  d="M18.36-16.16L5.96-16.16L5.96-20.76C6.44-21.32 6.80-21.72 7.24-22.24C7.44-22.48 7.80-22.84 8.08-23.16L18.36-23.16L18.36-27.32L6-27.32L1.80-22.24L1.80-0.12L5.96-0.12L5.96-11.96L18.36-11.96ZM37.16-6.36C36.52-5.64 35.52-4.56 34.84-3.80L27.68-3.80C27.28-4.28 27.08-4.40 26.76-4.80C26.64-4.96 26.48-5.12 26.36-5.28L26.36-13.28C26.72-13.76 26.88-13.92 27.20-14.28L27.20-14.24C27.36-14.40 27.56-14.68 27.72-14.88L34.12-14.88C34.60-14.28 35.04-13.76 35.52-13.20L35.52-11.68L27.28-11.56L27.28-7.40L39.92-7.28L39.92-14.88L36.24-19.28L25.64-19.28L21.96-14.88L21.96-3.68L25.68 0.60L36.84 0.60L40.44-3.48ZM60.60 0.12L60.60-14.28L57.44-18.80L47.20-18.80L44.04-14.28L44.04 0.12L48.20 0.12L48.20-12.88C48.56-13.40 48.80-13.64 49.04-14.08C49.16-14.28 49.28-14.44 49.40-14.60L55.24-14.60C55.68-14.04 55.72-13.88 56-13.52C56.12-13.32 56.28-13.04 56.44-12.80L56.44 0.12ZM65.20 8.56L77.48 8.56L81.24 5.04L81.24-18.56L77.04-18.56L77.04-17.52L75.72-18.52L67.56-18.52L64.20-14.92L64.20-3.40L67.52 0.32L76.08 0.32L77.04-0.44L77.04 3.16C76.68 3.52 76.12 4.08 75.84 4.40L65.20 4.40ZM74.76-3.84L69.36-3.84C69.28-4 68.92-4.40 68.92-4.44C68.72-4.64 68.56-4.84 68.40-5.08L68.40-13.16C68.12-12.92 68.80-13.72 69-13.92C69.08-14 69.12-14.08 69.36-14.36L74.60-14.36L77.04-12.36L77.04-5.72C76.24-5.08 75.40-4.40 74.76-3.84ZM103.60-14L103.60-24.48L98.96-27.36L84.84-27.36L84.84-0.12L98.96-0.12L103.60-3L103.60-12.32L102.24-13.16ZM97.72-23.20C98.36-22.80 98.80-22.48 99.40-22.12L99.40-16.36L97.68-15.24L89.04-15.24L89.04-23.20ZM97.80-11.08C98.08-10.92 98.12-10.88 98.36-10.72C98.72-10.44 99.04-10.20 99.40-9.96L99.40-5.32L98.56-4.80C98.36-4.64 98.04-4.48 97.68-4.28L89.04-4.28L89.04-11.08ZM111.36-0.12L111.36-27.36L107.20-27.36L107.20-0.12ZM128.08 0.12L132.44-5L132.44-13.48L128.08-18.80L119.32-18.80L114.96-13.48L114.96-5L119.32 0.12ZM121.24-4.08C120.68-4.72 120.36-5.16 119.84-5.72C119.56-6 119.40-6.24 119.12-6.56L119.12-12.04C119.84-12.88 120.56-13.76 121.28-14.60L126.12-14.60C126.92-13.56 127.44-12.96 128.20-12.08L128.28-12L128.28-6.52C127.88-6 127.56-5.68 127.20-5.32C126.84-4.92 126.56-4.52 126.16-4.08ZM137.04 8.56L149.32 8.56L153.08 5.04L153.08-18.56L148.88-18.56L148.88-17.52L147.56-18.52L139.40-18.52L136.04-14.92L136.04-3.40L139.36 0.32L147.92 0.32L148.88-0.44L148.88 3.16C148.52 3.52 147.96 4.08 147.68 4.40L137.04 4.40ZM146.60-3.84L141.20-3.84C141.12-4 140.76-4.40 140.76-4.44C140.56-4.64 140.40-4.84 140.24-5.08L140.24-13.16C139.96-12.92 140.64-13.72 140.84-13.92C140.92-14 140.96-14.08 141.20-14.36L146.44-14.36L148.88-12.36L148.88-5.72C148.08-5.08 147.24-4.40 146.60-3.84Z"></path>
                        </g> <!---->
                    </g> <!---->
                </g>
            </g>
        </g>
    </g>
</svg>